<?xml version="1.0" encoding="UTF-8" standalone="no"?>
<!-- Created with Inkscape (http://www.inkscape.org/) -->

<svg
   width="311.521mm"
   height="49.477112mm"
   viewBox="0 0 311.521 49.477112"
   version="1.1"
   id="svg767"
   inkscape:version="1.2.2 (b0a8486541, 2022-12-01)"
   sodipodi:docname="logo.svg"
   inkscape:export-filename="../src/assets/brand/logo.svg"
   inkscape:export-xdpi="96"
   inkscape:export-ydpi="96"
   xmlns:inkscape="http://www.inkscape.org/namespaces/inkscape"
   xmlns:sodipodi="http://sodipodi.sourceforge.net/DTD/sodipodi-0.dtd"
   xmlns="http://www.w3.org/2000/svg"
   xmlns:svg="http://www.w3.org/2000/svg">
  <sodipodi:namedview
     id="namedview769"
     pagecolor="#ffffff"
     bordercolor="#000000"
     borderopacity="0.25"
     inkscape:showpageshadow="2"
     inkscape:pageopacity="0.0"
     inkscape:pagecheckerboard="0"
     inkscape:deskcolor="#d1d1d1"
     inkscape:document-units="mm"
     showgrid="false"
     inkscape:zoom="0.72871773"
     inkscape:cx="547.53711"
     inkscape:cy="109.78188"
     inkscape:window-width="1920"
     inkscape:window-height="996"
     inkscape:window-x="0"
     inkscape:window-y="36"
     inkscape:window-maximized="1"
     inkscape:current-layer="layer1" />
  <defs
     id="defs764">
    <rect
       x="74.97258"
       y="371.41544"
       width="508.65738"
       height="218.89424"
       id="rect1015" />
  </defs>
  <g
     inkscape:label="Calque 1"
     inkscape:groupmode="layer"
     id="layer1"
     transform="translate(33.533432,-119.43389)">
    <text
       xml:space="preserve"
       transform="scale(0.26458333)"
       id="text1013"
       style="font-size:200px;font-family:'Archivo Black';-inkscape-font-specification:'Archivo Black, ';white-space:pre;shape-inside:url(#rect1015);display:inline;fill:#f1dbbf" />
    <g
       aria-label="storyboard"
       id="text1021"
       style="font-size:52.9167px;font-family:'Archivo Black';-inkscape-font-specification:'Archivo Black, ';fill:#f1dbbf;stroke-width:0.264583">
      <path
         d="m -19.245923,158.43349 q -3.598336,0 -6.879171,-0.9525 -3.227919,-0.9525 -5.344587,-2.96333 -2.063751,-2.01084 -2.063751,-5.08001 0,-0.47625 0.05292,-0.74083 h 9.789589 q -0.05292,0.21167 -0.05292,0.58208 0.05292,1.37584 1.270001,2.11667 1.270001,0.74084 3.227919,0.74084 4.392086,0 4.392086,-2.06376 0,-1.05833 -1.375834,-1.53458 -1.375835,-0.47625 -4.49792,-1.00542 -3.757085,-0.635 -6.191254,-1.37583 -2.381251,-0.74084 -4.180419,-2.48709 -1.799168,-1.79916 -1.799168,-4.97417 0,-5.13292 3.862919,-7.3025 3.915836,-2.16958 10.160007,-2.16958 5.45042,0 9.3662552,2.06375 3.9687524,2.01083 3.9687524,6.19125 l -0.052917,0.74083 h -9.6837559 v -0.42333 q -0.105833,-1.11125 -1.217084,-1.69333 -1.058334,-0.58209 -2.540002,-0.58209 -3.810002,0 -3.810002,1.79917 0,1.00542 1.322918,1.42875 1.322917,0.42333 4.339169,0.89958 3.704169,0.52917 6.191254,1.27001 2.4870845,0.68791 4.3391689,2.54 1.8520845,1.79916 1.8520845,5.08 0,5.34459 -4.0216691,7.62 -3.9687523,2.27542 -10.4245893,2.27542 z"
         id="path1144" />
      <path
         d="m 12.02785,158.43349 q -4.6566692,0 -7.1966707,-1.69333 -2.4870849,-1.69334 -2.4870849,-5.76792 v -13.97001 h -3.9158356 v -7.14375 H 2.767428 l 2.2754181,-8.46668 h 7.8316709 v 8.46668 h 5.926671 v 7.14375 h -5.926671 v 10.63626 q 0,1.905 0.635001,2.80458 0.635,0.84667 2.328335,0.84667 h 2.963335 v 6.19125 q -1.270001,0.42334 -3.280836,0.68792 -2.010834,0.26458 -3.492502,0.26458 z"
         id="path1146" />
      <path
         d="m 38.115794,158.43349 q -7.355421,0 -11.53584,-3.70417 -4.180419,-3.70416 -4.180419,-10.90084 0,-7.19667 4.180419,-10.90084 4.180419,-3.70416 11.53584,-3.70416 7.355421,0 11.53584,3.75708 4.233336,3.70417 4.233336,10.84792 0,7.14376 -4.233336,10.90084 -4.180419,3.70417 -11.53584,3.70417 z m 0,-7.14375 q 5.238753,0 5.238753,-5.92667 v -3.01625 q 0,-5.97959 -5.238753,-5.97959 -5.185836,0 -5.185836,5.97959 v 3.01625 q 0,5.92667 5.185836,5.92667 z"
         id="path1148" />
      <path
         d="m 58.964968,129.85848 h 8.625422 l 0.687917,4.23333 h 0.370417 q 0.952501,-2.32833 2.910419,-3.59833 1.957918,-1.32292 4.392086,-1.32292 1.852084,0 3.122085,0.635 v 8.83709 h -3.386669 q -3.280835,0 -4.762503,1.69333 -1.428751,1.69334 -1.428751,5.02709 v 12.43542 H 58.964968 Z"
         id="path1150" />
      <path
         d="m 90.609196,168.911 q -3.439586,0 -6.085421,-0.9525 v -6.29709 h 4.233336 q 3.968753,0 4.709587,-3.86292 L 82.354191,129.85848 h 11.324173 l 3.280836,11.32417 q 0.635,2.16958 2.063751,7.24959 h 0.370417 l 1.905002,-7.19667 3.01625,-11.37709 h 10.37167 l -9.94834,27.09335 q -2.16958,5.87375 -5.344582,8.89 -3.122085,3.06917 -8.784172,3.06917 z"
         id="path1152" />
      <path
         d="m 136.2763,158.43349 q -2.80458,0 -5.08,-1.11125 -2.27542,-1.16417 -3.59833,-3.4925 h -0.37042 l -0.74084,3.96875 h -8.5725 v -38.3646 h 10.53042 v 13.0175 h 0.37042 q 1.21708,-1.53458 3.175,-2.38125 1.95792,-0.84666 4.28625,-0.84666 5.66209,0 8.73126,3.70416 3.06917,3.65126 3.06917,10.84793 0,7.24959 -3.06917,10.95375 -3.06917,3.70417 -8.73126,3.70417 z m -3.28083,-7.77875 q 4.55083,0 4.55083,-5.39751 v -2.80458 q 0,-5.45042 -4.55083,-5.45042 -2.32834,0 -3.4925,1.69333 -1.16417,1.64042 -1.16417,4.28626 v 1.74625 q 0,2.64583 1.16417,4.28625 1.16416,1.64042 3.4925,1.64042 z"
         id="path1154" />
      <path
         d="m 167.60299,158.43349 q -7.35542,0 -11.53584,-3.70417 -4.18042,-3.70416 -4.18042,-10.90084 0,-7.19667 4.18042,-10.90084 4.18042,-3.70416 11.53584,-3.70416 7.35542,0 11.53584,3.75708 4.23334,3.70417 4.23334,10.84792 0,7.14376 -4.23334,10.90084 -4.18042,3.70417 -11.53584,3.70417 z m 0,-7.14375 q 5.23876,0 5.23876,-5.92667 v -3.01625 q 0,-5.97959 -5.23876,-5.97959 -5.18583,0 -5.18583,5.97959 v 3.01625 q 0,5.92667 5.18583,5.92667 z"
         id="path1156" />
      <path
         d="m 196.70716,158.43349 q -9.8425,0 -9.8425,-7.83167 0,-4.07458 2.16958,-6.19125 2.2225,-2.16959 6.35001,-2.96334 4.1275,-0.79375 10.795,-0.79375 v -1.37583 q 0,-1.64042 -1.16416,-2.48709 -1.11126,-0.84666 -2.91042,-0.84666 -1.64042,0 -2.8575,0.58208 -1.16417,0.58208 -1.16417,1.85208 v 0.21167 h -10.37168 q -0.0529,-0.26458 -0.0529,-0.74083 0,-3.96876 3.75708,-6.29709 3.81001,-2.32833 10.84793,-2.32833 6.40292,0 10.42459,2.16958 4.02167,2.11667 4.02167,6.93209 v 10.90084 q 0,0.89958 0.42333,1.48166 0.42333,0.58209 1.27,0.58209 h 1.905 v 6.08542 q -0.74083,0.42333 -2.2225,0.74083 -1.48167,0.3175 -3.28084,0.3175 -3.12208,0 -5.13292,-0.89958 -1.95791,-0.9525 -2.48708,-2.59292 h -0.37042 q -3.96875,3.4925 -10.10709,3.4925 z m 4.28626,-6.56167 q 2.06375,0 3.59833,-1.11125 1.5875,-1.11125 1.5875,-2.75167 v -2.38125 q -4.49792,0 -6.6675,1.00542 -2.11667,0.9525 -2.11667,2.59292 0,2.64583 3.59834,2.64583 z"
         id="path1158" />
      <path
         d="m 224.27676,129.85848 h 8.62542 l 0.68792,4.23333 h 0.37041 q 0.95251,-2.32833 2.91042,-3.59833 1.95792,-1.32292 4.39209,-1.32292 1.85208,0 3.12208,0.635 v 8.83709 h -3.38666 q -3.28084,0 -4.76251,1.69333 -1.42875,1.69334 -1.42875,5.02709 v 12.43542 h -10.53042 z"
         id="path1160" />
      <path
         d="m 259.62511,158.43349 q -5.66208,0 -8.73125,-3.70417 -3.06917,-3.70416 -3.06917,-10.95375 0,-7.19667 3.06917,-10.84793 3.06917,-3.70416 8.73125,-3.70416 2.32834,0 4.28626,0.84666 2.01083,0.79375 3.175,2.38125 h 0.37042 v -13.0175 h 10.53042 v 38.3646 h -8.57251 l -0.74083,-3.96875 h -0.37042 q -2.8575,4.60375 -8.67834,4.60375 z m 3.28084,-7.77875 q 2.32833,0 3.4925,-1.64042 1.16417,-1.64042 1.16417,-4.28625 v -1.74625 q 0,-2.64584 -1.16417,-4.28626 -1.16417,-1.69333 -3.4925,-1.69333 -4.55084,0 -4.55084,5.45042 v 2.80458 q 0,5.39751 4.55084,5.39751 z"
         id="path1162" />
    </g>
  </g>
</svg>
